<svg width="48" height="48" viewBox="0 0 48 48" fill="none" xmlns="http://www.w3.org/2000/svg">
  <path d="M32 32L24 24L16 32" stroke="#6C757D" stroke-width="2" stroke-linecap="round" stroke-linejoin="round"/>
  <path d="M24 24V42" stroke="#6C757D" stroke-width="2" stroke-linecap="round" stroke-linejoin="round"/>
  <path d="M40.7799 36.78C42.7306 35.7165 44.2716 34.0337 45.1597 31.9972C46.0477 29.9607 46.2323 27.6864 45.6843 25.5334C45.1363 23.3803 43.8869 21.4711 42.1333 20.1069C40.3796 18.7427 38.2216 18.0014 35.9999 18H33.4799C32.8745 15.6585 31.7462 13.4846 30.1798 11.6321C28.6134 9.77957 26.6496 8.29785 24.4361 7.28751C22.2226 6.27717 19.8152 5.76306 17.3893 5.78047C14.9635 5.79788 12.5657 6.34645 10.3689 7.38495C8.17213 8.42345 6.23209 9.93088 4.69533 11.8051C3.15856 13.6793 2.06517 15.8702 1.49491 18.2214C0.924643 20.5727 0.891569 23.0238 1.39846 25.3897C1.90535 27.7556 2.93849 29.9767 4.41994 31.9" stroke="#6C757D" stroke-width="2" stroke-linecap="round" stroke-linejoin="round"/>
</svg>